<svg xmlns="http://www.w3.org/2000/svg" xmlns:xlink="http://www.w3.org/1999/xlink" width="500" zoomAndPan="magnify" viewBox="0 0 375 374.999991" height="500" preserveAspectRatio="xMidYMid meet" version="1.0"><defs><g/><clipPath id="4d68c6dc53"><path d="M 54.578125 217.738281 L 99 217.738281 L 99 261.238281 L 54.578125 261.238281 Z M 54.578125 217.738281 " clip-rule="nonzero"/></clipPath><clipPath id="2362088644"><path d="M 110 217.738281 L 154 217.738281 L 154 261.238281 L 110 261.238281 Z M 110 217.738281 " clip-rule="nonzero"/></clipPath><clipPath id="233caed6ce"><path d="M 165 217.738281 L 209 217.738281 L 209 261.238281 L 165 261.238281 Z M 165 217.738281 " clip-rule="nonzero"/></clipPath><clipPath id="2cb7077f48"><path d="M 220 217.738281 L 265 217.738281 L 265 261.238281 L 220 261.238281 Z M 220 217.738281 " clip-rule="nonzero"/></clipPath><clipPath id="0131eae67d"><path d="M 276 217.738281 L 320.078125 217.738281 L 320.078125 261.238281 L 276 261.238281 Z M 276 217.738281 " clip-rule="nonzero"/></clipPath><clipPath id="c6d03f84b5"><path d="M 64.605469 89.296875 L 152.355469 89.296875 L 152.355469 203.296875 L 64.605469 203.296875 Z M 64.605469 89.296875 " clip-rule="nonzero"/></clipPath></defs><g clip-path="url(#4d68c6dc53)"><path fill="#d9d9d9" d="M 54.578125 229.167969 L 66.03125 217.796875 L 76.207031 228.328125 L 86.8125 217.796875 L 98.261719 229.167969 L 87.660156 239.277344 L 98.261719 249.804688 L 86.8125 261.175781 L 76.207031 250.648438 L 66.03125 261.175781 L 54.578125 249.804688 L 65.179688 239.277344 Z M 54.578125 229.167969 " fill-opacity="1" fill-rule="evenodd"/></g><g clip-path="url(#2362088644)"><path fill="#d9d9d9" d="M 110.136719 229.167969 L 121.164062 217.796875 L 131.769531 228.328125 L 142.371094 217.796875 L 153.824219 229.167969 L 143.21875 239.277344 L 153.824219 249.804688 L 142.371094 261.175781 L 131.769531 250.648438 L 121.164062 261.175781 L 110.136719 249.804688 L 120.316406 239.277344 Z M 110.136719 229.167969 " fill-opacity="1" fill-rule="evenodd"/></g><g clip-path="url(#233caed6ce)"><path fill="#d9d9d9" d="M 165.273438 229.167969 L 176.726562 217.796875 L 187.328125 228.328125 L 197.929688 217.796875 L 208.957031 229.167969 L 198.355469 239.277344 L 208.957031 249.804688 L 197.929688 261.175781 L 187.328125 250.648438 L 176.726562 261.175781 L 165.273438 249.804688 L 175.878906 239.277344 Z M 165.273438 229.167969 " fill-opacity="1" fill-rule="evenodd"/></g><g clip-path="url(#2cb7077f48)"><path fill="#d9d9d9" d="M 220.832031 229.167969 L 232.285156 217.796875 L 242.464844 228.328125 L 253.066406 217.796875 L 264.519531 229.167969 L 253.914062 239.277344 L 264.519531 249.804688 L 253.066406 261.175781 L 242.464844 250.648438 L 232.285156 261.175781 L 220.832031 249.804688 L 231.4375 239.277344 Z M 220.832031 229.167969 " fill-opacity="1" fill-rule="evenodd"/></g><g clip-path="url(#0131eae67d)"><path fill="#d9d9d9" d="M 276.394531 229.167969 L 287.421875 217.796875 L 298.023438 228.328125 L 308.628906 217.796875 L 320.078125 229.167969 L 309.476562 239.277344 L 320.078125 249.804688 L 308.628906 261.175781 L 298.023438 250.648438 L 287.421875 261.175781 L 276.394531 249.804688 L 286.996094 239.277344 Z M 276.394531 229.167969 " fill-opacity="1" fill-rule="evenodd"/></g><g clip-path="url(#c6d03f84b5)"><path fill="#545454" d="M 108.480469 157.273438 C 93.628906 157.273438 81.589844 145.226562 81.589844 130.367188 C 81.589844 115.511719 93.628906 103.464844 108.480469 103.464844 C 123.332031 103.464844 135.375 115.511719 135.375 130.367188 C 135.375 145.226562 123.332031 157.273438 108.480469 157.273438 Z M 108.480469 89.402344 C 84.253906 89.402344 64.613281 109.046875 64.613281 133.28125 C 64.613281 157.511719 108.480469 203.242188 108.480469 203.242188 C 108.480469 203.242188 152.347656 157.511719 152.347656 133.28125 C 152.347656 109.046875 132.707031 89.402344 108.480469 89.402344 " fill-opacity="1" fill-rule="nonzero"/></g><g fill="#d9d9d9" fill-opacity="1"><g transform="translate(173.06683, 194.874879)"><g><path d="M 4.4375 0 L 4.4375 -100.46875 L 24.5625 -100.46875 L 24.5625 -17.078125 L 45.265625 -17.078125 L 45.265625 0 Z M 4.4375 0 "/></g></g></g><g fill="#d9d9d9" fill-opacity="1"><g transform="translate(219.496094, 194.874879)"><g><path d="M 3.515625 0 L 3.515625 -100.46875 L 22.921875 -100.46875 L 22.921875 0 Z M 3.515625 0 "/></g></g></g><g fill="#d9d9d9" fill-opacity="1"><g transform="translate(246.043809, 194.874879)"><g><path d="M 13.6875 0 L 1.28125 -100.578125 L 20.46875 -100.578125 L 27.828125 -32.15625 L 34.390625 -100.578125 L 53.5625 -100.578125 L 41.171875 0 Z M 13.6875 0 "/></g></g></g><g fill="#545454" fill-opacity="1"><g transform="translate(89.096378, 289.209681)"><g><path d="M 7.566406 0 L 10.34375 0 L 10.34375 -11.507812 L 16.320312 -11.507812 L 16.320312 -14.285156 L 1.585938 -14.285156 L 1.585938 -11.507812 L 7.566406 -11.507812 Z M 7.566406 0 "/></g></g></g><g fill="#545454" fill-opacity="1"><g transform="translate(107.000692, 289.209681)"><g><path d="M 1.585938 0 L 4.367188 0 L 4.367188 -11.507812 L 15.277344 -11.507812 L 15.277344 -14.285156 L 4.367188 -14.285156 L 1.585938 -11.507812 Z M 1.585938 0 "/></g></g></g><g fill="#545454" fill-opacity="1"><g transform="translate(123.863473, 289.209681)"><g><path d="M 1.585938 0 L 4.367188 0 L 4.367188 -5.753906 L 14.039062 -5.753906 L 14.039062 0 L 16.816406 0 L 16.816406 -11.507812 L 14.039062 -14.285156 L 4.367188 -14.285156 L 1.585938 -11.507812 Z M 4.367188 -8.53125 L 4.367188 -11.507812 L 14.039062 -11.507812 L 14.039062 -8.53125 Z M 4.367188 -8.53125 "/></g></g></g><g fill="#545454" fill-opacity="1"><g transform="translate(142.263748, 289.209681)"><g><path d="M 1.585938 0 L 4.367188 0 L 4.367188 -11.507812 L 14.039062 -11.507812 L 14.039062 0 L 16.816406 0 L 16.816406 -11.507812 L 14.039062 -14.285156 L 4.367188 -14.285156 L 1.585938 -11.507812 Z M 1.585938 0 "/></g></g></g><g fill="#545454" fill-opacity="1"><g transform="translate(160.664024, 289.209681)"><g><path d="M 1.585938 0 L 13.566406 0 L 13.566406 -0.0234375 L 16.320312 -2.777344 L 16.320312 -5.753906 L 13.542969 -8.53125 L 4.367188 -8.53125 L 4.367188 -11.507812 L 16.320312 -11.507812 L 16.320312 -14.285156 L 4.339844 -14.285156 L 4.339844 -14.261719 L 1.585938 -11.507812 L 1.585938 -8.53125 L 4.367188 -5.753906 L 13.542969 -5.753906 L 13.542969 -2.777344 L 1.585938 -2.777344 Z M 1.585938 0 "/></g></g></g><g fill="#545454" fill-opacity="1"><g transform="translate(178.568338, 289.209681)"><g><path d="M 1.585938 2.777344 L 4.367188 2.777344 L 4.367188 0 L 13.542969 0 L 16.320312 -2.777344 L 16.320312 -11.507812 L 13.542969 -14.285156 L 4.367188 -14.285156 L 1.585938 -11.507812 Z M 4.367188 -2.777344 L 4.367188 -11.507812 L 13.542969 -11.507812 L 13.542969 -2.777344 Z M 4.367188 -2.777344 "/></g></g></g><g fill="#545454" fill-opacity="1"><g transform="translate(196.472652, 289.209681)"><g><path d="M 4.367188 0 L 14.039062 0 L 16.816406 -2.777344 L 16.816406 -11.507812 L 14.039062 -14.285156 L 4.367188 -14.285156 L 1.585938 -11.507812 L 1.585938 -2.777344 Z M 4.367188 -2.777344 L 4.367188 -11.507812 L 14.039062 -11.507812 L 14.039062 -2.777344 Z M 4.367188 -2.777344 "/></g></g></g><g fill="#545454" fill-opacity="1"><g transform="translate(214.872928, 289.209681)"><g><path d="M 1.585938 0 L 4.367188 0 L 4.367188 -11.507812 L 15.277344 -11.507812 L 15.277344 -14.285156 L 4.367188 -14.285156 L 1.585938 -11.507812 Z M 1.585938 0 "/></g></g></g><g fill="#545454" fill-opacity="1"><g transform="translate(231.735708, 289.209681)"><g><path d="M 7.566406 0 L 10.34375 0 L 10.34375 -11.507812 L 16.320312 -11.507812 L 16.320312 -14.285156 L 1.585938 -14.285156 L 1.585938 -11.507812 L 7.566406 -11.507812 Z M 7.566406 0 "/></g></g></g><g fill="#545454" fill-opacity="1"><g transform="translate(249.640022, 289.209681)"><g><path d="M 4.367188 0 L 16.765625 0 L 16.765625 -2.777344 L 4.367188 -2.777344 L 4.367188 -5.753906 L 13.542969 -5.753906 L 13.542969 -8.53125 L 4.367188 -8.53125 L 4.367188 -11.507812 L 16.765625 -11.507812 L 16.765625 -14.285156 L 4.367188 -14.285156 L 1.585938 -11.507812 L 1.585938 -2.777344 Z M 4.367188 0 "/></g></g></g><g fill="#545454" fill-opacity="1"><g transform="translate(267.990708, 289.209681)"><g><path d="M 1.585938 0 L 13.566406 0 L 13.566406 -0.0234375 L 16.320312 -2.777344 L 16.320312 -5.753906 L 13.542969 -8.53125 L 4.367188 -8.53125 L 4.367188 -11.507812 L 16.320312 -11.507812 L 16.320312 -14.285156 L 4.339844 -14.285156 L 4.339844 -14.261719 L 1.585938 -11.507812 L 1.585938 -8.53125 L 4.367188 -5.753906 L 13.542969 -5.753906 L 13.542969 -2.777344 L 1.585938 -2.777344 Z M 1.585938 0 "/></g></g></g></svg>