<svg xmlns="http://www.w3.org/2000/svg" xmlns:xlink="http://www.w3.org/1999/xlink" width="500" zoomAndPan="magnify" viewBox="0 0 375 374.999991" height="500" preserveAspectRatio="xMidYMid meet" version="1.0"><defs><g/><clipPath id="e587ed1049"><path d="M 42.203125 37.5 L 306 37.5 L 306 333 L 42.203125 333 Z M 42.203125 37.5 " clip-rule="nonzero"/></clipPath><clipPath id="7267bd8281"><path d="M 121 65 L 332.453125 65 L 332.453125 273 L 121 273 Z M 121 65 " clip-rule="nonzero"/></clipPath><clipPath id="b57c0d117e"><path d="M 86.183594 115.15625 L 287 115.15625 L 287 199 L 86.183594 199 Z M 86.183594 115.15625 " clip-rule="nonzero"/></clipPath><clipPath id="6e80595ceb"><path d="M 196 202 L 229 202 L 229 214.90625 L 196 214.90625 Z M 196 202 " clip-rule="nonzero"/></clipPath><clipPath id="a2050d4035"><path d="M 263 202 L 288.683594 202 L 288.683594 214.90625 L 263 214.90625 Z M 263 202 " clip-rule="nonzero"/></clipPath><clipPath id="1db27f4631"><path d="M 213.609375 267.957031 L 248.097656 267.957031 L 248.097656 270.222656 L 213.609375 270.222656 Z M 152.09375 267.957031 L 186.582031 267.957031 L 186.582031 270.222656 L 152.09375 270.222656 Z M 152.09375 267.957031 " clip-rule="nonzero"/></clipPath></defs><g clip-path="url(#e587ed1049)"><path fill="#0d6efd" d="M 208.941406 318.597656 C 135.410156 318.597656 75.804688 258.894531 75.804688 185.25 C 75.804688 111.605469 135.410156 51.902344 208.941406 51.902344 C 247.019531 51.902344 281.355469 67.914062 305.621094 93.574219 C 278.597656 59.414062 236.8125 37.496094 189.917969 37.496094 C 108.445312 37.496094 42.390625 103.648438 42.390625 185.25 C 42.390625 266.851562 108.445312 333.003906 189.917969 333.003906 C 236.8125 333.003906 278.597656 311.085938 305.621094 276.925781 C 281.355469 302.585938 247.019531 318.597656 208.941406 318.597656 " fill-opacity="1" fill-rule="nonzero"/></g><path fill="#0d6efd" d="M 270.59375 264.558594 C 251.371094 282.351562 225.667969 293.238281 197.421875 293.238281 C 166.589844 293.238281 138.78125 280.269531 119.128906 259.492188 C 122.03125 263.160156 125.140625 266.652344 128.441406 269.949219 C 168.035156 309.519531 232.914062 308.089844 269.5625 265.765625 C 269.90625 265.363281 270.253906 264.960938 270.59375 264.558594 " fill-opacity="1" fill-rule="nonzero"/><g clip-path="url(#7267bd8281)"><path fill="#0d6efd" d="M 212.828125 65.597656 C 176.398438 65.597656 143.785156 81.921875 121.871094 107.675781 C 143.226562 87.65625 171.925781 75.398438 203.480469 75.398438 C 269.464844 75.398438 322.957031 128.96875 322.957031 195.054688 C 322.957031 224.652344 312.222656 251.730469 294.449219 272.617188 C 317.742188 250.785156 332.300781 219.722656 332.300781 185.25 C 332.300781 119.164062 278.8125 65.597656 212.828125 65.597656 " fill-opacity="1" fill-rule="nonzero"/></g><g clip-path="url(#b57c0d117e)"><path fill="#0d6efd" d="M 224.902344 173.773438 C 212.636719 171.8125 200.980469 166.984375 197.347656 154.371094 C 195.136719 146.707031 193.605469 132.621094 201.742188 127.636719 C 208.214844 123.675781 217.476562 124.695312 224.707031 124.679688 C 236.808594 124.648438 248.914062 126.421875 260.5 129.925781 C 266.25 131.667969 270.941406 133.261719 274.933594 136.617188 C 275.78125 137.328125 277.605469 139.035156 279.414062 141.609375 C 282.851562 146.507812 284.191406 151.777344 284.757812 155.21875 C 284.871094 157.898438 285.03125 163.863281 282.0625 169.078125 C 281.300781 170.417969 280.386719 171.632812 279.046875 172.625 C 276.902344 174.21875 274.238281 174.800781 271.121094 174.894531 C 255.992188 175.347656 239.890625 176.171875 224.902344 173.773438 Z M 282.339844 194.875 C 285.171875 192.058594 285.824219 188.292969 286.203125 182.371094 C 287.121094 167.890625 285.628906 156.53125 284.976562 154.21875 C 284.734375 152.230469 284.328125 149.691406 283.671875 146.710938 C 282.535156 141.539062 280.238281 135.804688 278.957031 131.511719 C 276.015625 121.628906 252.382812 120.113281 243.449219 118.539062 C 225.394531 115.351562 211.898438 115.15625 205.921875 115.203125 C 198.839844 115.257812 194.464844 115.699219 191.199219 116.15625 C 182.949219 117.304688 176.460938 119.261719 170.296875 121.394531 C 153.367188 127.25 140.28125 133.949219 137.671875 135.273438 C 105.074219 151.769531 86.367188 163.679688 86.691406 164.265625 C 86.988281 164.800781 102.320312 154.359375 124.695312 152.355469 C 129.480469 151.929688 140.824219 150.914062 142.269531 154.738281 C 144.320312 160.171875 125.078125 171.847656 124.21875 172.363281 C 113.527344 178.773438 103.902344 181.277344 101.214844 181.792969 C 106.027344 181.335938 133.066406 179.027344 149.871094 160.453125 C 153.582031 156.351562 158.207031 149.894531 164.121094 150.453125 C 166.917969 150.714844 169.378906 152.496094 175.523438 160.453125 C 185.101562 172.867188 189.175781 181.683594 189.773438 181.414062 C 190.464844 181.097656 187.210938 168.1875 178.371094 155.214844 C 172.015625 145.886719 164.851562 139.578125 159.625 135.636719 C 163.003906 133.949219 167.910156 131.957031 174.097656 130.921875 C 178.082031 130.253906 181.667969 130.136719 184.660156 130.261719 C 182.863281 131.019531 181.601562 132.796875 181.601562 134.875 L 181.601562 154.53125 C 181.601562 157.292969 183.835938 159.53125 186.589844 159.53125 C 188.054688 159.53125 189.371094 158.898438 190.285156 157.894531 C 190.894531 163.347656 191.53125 168.796875 192.1875 174.242188 C 192.9375 180.445312 193.714844 186.648438 194.523438 192.84375 C 195.28125 198.722656 223.726562 198.148438 227.664062 198.320312 C 242.152344 198.957031 256.671875 198.949219 271.160156 198.300781 C 276.808594 198.046875 280.207031 196.996094 282.339844 194.875 " fill-opacity="1" fill-rule="nonzero"/></g><path fill="#0d6efd" d="M 100.46875 181.890625 C 100.476562 181.910156 100.734375 181.882812 101.214844 181.792969 C 100.722656 181.839844 100.460938 181.867188 100.46875 181.890625 " fill-opacity="1" fill-rule="nonzero"/><g clip-path="url(#6e80595ceb)"><path fill="#0d6efd" d="M 225.953125 205.164062 C 225.746094 204.53125 225.171875 204.097656 224.511719 204.058594 C 216.539062 203.621094 208.996094 202.9375 201.921875 202.082031 C 198.976562 201.730469 196.378906 204.03125 196.378906 207.007812 L 196.378906 208.195312 C 196.378906 210.742188 198.296875 212.875 200.820312 213.132812 C 208.925781 213.960938 217.636719 214.582031 226.882812 214.875 C 228.003906 214.914062 228.820312 213.820312 228.464844 212.75 L 225.953125 205.164062 " fill-opacity="1" fill-rule="nonzero"/></g><g clip-path="url(#a2050d4035)"><path fill="#0d6efd" d="M 288.363281 207.125 C 288.359375 207.09375 288.359375 207.058594 288.355469 207.027344 C 288.222656 204.164062 285.699219 202.007812 282.859375 202.335938 C 277.6875 202.925781 272.25 203.429688 266.574219 203.808594 C 265.859375 203.855469 265.261719 204.367188 265.105469 205.070312 L 263.53125 212.148438 C 263.296875 213.203125 264.144531 214.1875 265.222656 214.113281 C 271.796875 213.640625 278.074219 213.015625 284.023438 212.285156 C 286.597656 211.972656 288.484375 209.71875 288.363281 207.125 " fill-opacity="1" fill-rule="nonzero"/></g><path fill="#0d6efd" d="M 266.925781 139.316406 L 217.523438 162.65625 C 217.523438 162.65625 233.671875 156.464844 266.925781 139.316406 " fill-opacity="1" fill-rule="nonzero"/><path fill="#0d6efd" d="M 210.09375 162.65625 C 210.09375 162.65625 226.242188 156.464844 259.496094 139.316406 L 210.09375 162.65625 " fill-opacity="1" fill-rule="nonzero"/><g fill="#0d6efd" fill-opacity="1"><g transform="translate(165.370306, 284.634473)"><g><path d="M 0.140625 -9.390625 L 4.6875 -9.390625 L 4.6875 -8.046875 L 3.15625 -8.046875 L 3.15625 0 L 1.671875 0 L 1.671875 -8.046875 L 0.140625 -8.046875 Z M 0.140625 -9.390625 "/></g></g></g><g fill="#0d6efd" fill-opacity="1"><g transform="translate(171.471077, 284.634473)"><g><path d="M 3.625 0 C 3.601562 -0.0625 3.582031 -0.117188 3.5625 -0.171875 C 3.550781 -0.222656 3.535156 -0.289062 3.515625 -0.375 C 3.503906 -0.457031 3.492188 -0.5625 3.484375 -0.6875 C 3.484375 -0.8125 3.484375 -0.96875 3.484375 -1.15625 L 3.484375 -2.625 C 3.484375 -3.0625 3.40625 -3.367188 3.25 -3.546875 C 3.101562 -3.734375 2.859375 -3.828125 2.515625 -3.828125 L 2.015625 -3.828125 L 2.015625 0 L 0.53125 0 L 0.53125 -9.390625 L 2.765625 -9.390625 C 3.535156 -9.390625 4.09375 -9.207031 4.4375 -8.84375 C 4.78125 -8.488281 4.953125 -7.945312 4.953125 -7.21875 L 4.953125 -6.484375 C 4.953125 -5.523438 4.628906 -4.890625 3.984375 -4.578125 C 4.359375 -4.429688 4.613281 -4.1875 4.75 -3.84375 C 4.882812 -3.5 4.953125 -3.082031 4.953125 -2.59375 L 4.953125 -1.140625 C 4.953125 -0.910156 4.960938 -0.707031 4.984375 -0.53125 C 5.003906 -0.351562 5.050781 -0.175781 5.125 0 Z M 2.015625 -8.046875 L 2.015625 -5.15625 L 2.59375 -5.15625 C 2.863281 -5.15625 3.078125 -5.226562 3.234375 -5.375 C 3.390625 -5.519531 3.46875 -5.78125 3.46875 -6.15625 L 3.46875 -7.078125 C 3.46875 -7.421875 3.40625 -7.664062 3.28125 -7.8125 C 3.164062 -7.96875 2.976562 -8.046875 2.71875 -8.046875 Z M 2.015625 -8.046875 "/></g></g></g><g fill="#0d6efd" fill-opacity="1"><g transform="translate(178.134908, 284.634473)"><g><path d="M 5.3125 0 L 3.828125 0 L 3.5625 -1.703125 L 1.75 -1.703125 L 1.5 0 L 0.140625 0 L 1.65625 -9.390625 L 3.8125 -9.390625 Z M 1.9375 -2.96875 L 3.359375 -2.96875 L 2.65625 -7.71875 Z M 1.9375 -2.96875 "/></g></g></g><g fill="#0d6efd" fill-opacity="1"><g transform="translate(184.865767, 284.634473)"><g><path d="M 1.84375 -6.796875 L 1.84375 0 L 0.515625 0 L 0.515625 -9.390625 L 2.375 -9.390625 L 3.890625 -3.765625 L 3.890625 -9.390625 L 5.203125 -9.390625 L 5.203125 0 L 3.6875 0 Z M 1.84375 -6.796875 "/></g></g></g><g fill="#0d6efd" fill-opacity="1"><g transform="translate(191.86475, 284.634473)"><g><path d="M 0.34375 -7.125 C 0.34375 -7.882812 0.523438 -8.46875 0.890625 -8.875 C 1.253906 -9.28125 1.796875 -9.484375 2.515625 -9.484375 C 3.242188 -9.484375 3.785156 -9.28125 4.140625 -8.875 C 4.503906 -8.46875 4.6875 -7.882812 4.6875 -7.125 L 4.6875 -6.765625 L 3.296875 -6.765625 L 3.296875 -7.21875 C 3.296875 -7.5625 3.226562 -7.800781 3.09375 -7.9375 C 2.96875 -8.082031 2.789062 -8.15625 2.5625 -8.15625 C 2.332031 -8.15625 2.148438 -8.082031 2.015625 -7.9375 C 1.890625 -7.800781 1.828125 -7.5625 1.828125 -7.21875 C 1.828125 -6.90625 1.894531 -6.625 2.03125 -6.375 C 2.175781 -6.125 2.351562 -5.890625 2.5625 -5.671875 C 2.78125 -5.453125 3.015625 -5.234375 3.265625 -5.015625 C 3.515625 -4.796875 3.742188 -4.554688 3.953125 -4.296875 C 4.171875 -4.046875 4.347656 -3.753906 4.484375 -3.421875 C 4.628906 -3.085938 4.703125 -2.695312 4.703125 -2.25 C 4.703125 -1.488281 4.515625 -0.90625 4.140625 -0.5 C 3.773438 -0.09375 3.226562 0.109375 2.5 0.109375 C 1.78125 0.109375 1.234375 -0.09375 0.859375 -0.5 C 0.492188 -0.90625 0.3125 -1.488281 0.3125 -2.25 L 0.3125 -2.890625 L 1.703125 -2.890625 L 1.703125 -2.15625 C 1.703125 -1.820312 1.769531 -1.585938 1.90625 -1.453125 C 2.050781 -1.316406 2.238281 -1.25 2.46875 -1.25 C 2.695312 -1.25 2.878906 -1.316406 3.015625 -1.453125 C 3.160156 -1.585938 3.234375 -1.820312 3.234375 -2.15625 C 3.234375 -2.476562 3.160156 -2.757812 3.015625 -3 C 2.867188 -3.25 2.6875 -3.484375 2.46875 -3.703125 C 2.257812 -3.921875 2.03125 -4.140625 1.78125 -4.359375 C 1.539062 -4.578125 1.3125 -4.816406 1.09375 -5.078125 C 0.882812 -5.335938 0.707031 -5.632812 0.5625 -5.96875 C 0.414062 -6.300781 0.34375 -6.6875 0.34375 -7.125 Z M 0.34375 -7.125 "/></g></g></g><g fill="#0d6efd" fill-opacity="1"><g transform="translate(198.153204, 284.634473)"><g><path d="M 2.703125 -9.390625 C 3.453125 -9.390625 4.003906 -9.191406 4.359375 -8.796875 C 4.722656 -8.398438 4.90625 -7.820312 4.90625 -7.0625 L 4.90625 -5.84375 C 4.90625 -5.082031 4.722656 -4.503906 4.359375 -4.109375 C 4.003906 -3.722656 3.453125 -3.53125 2.703125 -3.53125 L 2.015625 -3.53125 L 2.015625 0 L 0.53125 0 L 0.53125 -9.390625 Z M 2.015625 -8.046875 L 2.015625 -4.859375 L 2.703125 -4.859375 C 2.941406 -4.859375 3.125 -4.921875 3.25 -5.046875 C 3.375 -5.171875 3.4375 -5.40625 3.4375 -5.75 L 3.4375 -7.15625 C 3.4375 -7.5 3.375 -7.734375 3.25 -7.859375 C 3.125 -7.984375 2.941406 -8.046875 2.703125 -8.046875 Z M 2.015625 -8.046875 "/></g></g></g><g fill="#0d6efd" fill-opacity="1"><g transform="translate(204.481883, 284.634473)"><g><path d="M 1.890625 -2.15625 C 1.890625 -1.820312 1.957031 -1.582031 2.09375 -1.4375 C 2.238281 -1.300781 2.425781 -1.234375 2.65625 -1.234375 C 2.882812 -1.234375 3.066406 -1.300781 3.203125 -1.4375 C 3.347656 -1.582031 3.421875 -1.820312 3.421875 -2.15625 L 3.421875 -7.21875 C 3.421875 -7.5625 3.347656 -7.800781 3.203125 -7.9375 C 3.066406 -8.082031 2.882812 -8.15625 2.65625 -8.15625 C 2.425781 -8.15625 2.238281 -8.082031 2.09375 -7.9375 C 1.957031 -7.800781 1.890625 -7.5625 1.890625 -7.21875 Z M 0.421875 -7.125 C 0.421875 -7.882812 0.609375 -8.46875 0.984375 -8.875 C 1.367188 -9.28125 1.925781 -9.484375 2.65625 -9.484375 C 3.375 -9.484375 3.925781 -9.28125 4.3125 -8.875 C 4.695312 -8.46875 4.890625 -7.882812 4.890625 -7.125 L 4.890625 -2.25 C 4.890625 -1.488281 4.695312 -0.90625 4.3125 -0.5 C 3.925781 -0.09375 3.375 0.109375 2.65625 0.109375 C 1.925781 0.109375 1.367188 -0.09375 0.984375 -0.5 C 0.609375 -0.90625 0.421875 -1.488281 0.421875 -2.25 Z M 0.421875 -7.125 "/></g></g></g><g fill="#0d6efd" fill-opacity="1"><g transform="translate(211.065274, 284.634473)"><g><path d="M 3.625 0 C 3.601562 -0.0625 3.582031 -0.117188 3.5625 -0.171875 C 3.550781 -0.222656 3.535156 -0.289062 3.515625 -0.375 C 3.503906 -0.457031 3.492188 -0.5625 3.484375 -0.6875 C 3.484375 -0.8125 3.484375 -0.96875 3.484375 -1.15625 L 3.484375 -2.625 C 3.484375 -3.0625 3.40625 -3.367188 3.25 -3.546875 C 3.101562 -3.734375 2.859375 -3.828125 2.515625 -3.828125 L 2.015625 -3.828125 L 2.015625 0 L 0.53125 0 L 0.53125 -9.390625 L 2.765625 -9.390625 C 3.535156 -9.390625 4.09375 -9.207031 4.4375 -8.84375 C 4.78125 -8.488281 4.953125 -7.945312 4.953125 -7.21875 L 4.953125 -6.484375 C 4.953125 -5.523438 4.628906 -4.890625 3.984375 -4.578125 C 4.359375 -4.429688 4.613281 -4.1875 4.75 -3.84375 C 4.882812 -3.5 4.953125 -3.082031 4.953125 -2.59375 L 4.953125 -1.140625 C 4.953125 -0.910156 4.960938 -0.707031 4.984375 -0.53125 C 5.003906 -0.351562 5.050781 -0.175781 5.125 0 Z M 2.015625 -8.046875 L 2.015625 -5.15625 L 2.59375 -5.15625 C 2.863281 -5.15625 3.078125 -5.226562 3.234375 -5.375 C 3.390625 -5.519531 3.46875 -5.78125 3.46875 -6.15625 L 3.46875 -7.078125 C 3.46875 -7.421875 3.40625 -7.664062 3.28125 -7.8125 C 3.164062 -7.96875 2.976562 -8.046875 2.71875 -8.046875 Z M 2.015625 -8.046875 "/></g></g></g><g fill="#0d6efd" fill-opacity="1"><g transform="translate(217.729105, 284.634473)"><g><path d="M 0.140625 -9.390625 L 4.6875 -9.390625 L 4.6875 -8.046875 L 3.15625 -8.046875 L 3.15625 0 L 1.671875 0 L 1.671875 -8.046875 L 0.140625 -8.046875 Z M 0.140625 -9.390625 "/></g></g></g><g fill="#0d6efd" fill-opacity="1"><g transform="translate(223.829876, 284.634473)"><g><path d="M 2.015625 -5.421875 L 4.03125 -5.421875 L 4.03125 -4.09375 L 2.015625 -4.09375 L 2.015625 -1.34375 L 4.5625 -1.34375 L 4.5625 0 L 0.53125 0 L 0.53125 -9.390625 L 4.5625 -9.390625 L 4.5625 -8.046875 L 2.015625 -8.046875 Z M 2.015625 -5.421875 "/></g></g></g><g fill="#0d6efd" fill-opacity="1"><g transform="translate(230.0379, 284.634473)"><g><path d="M 0.34375 -7.125 C 0.34375 -7.882812 0.523438 -8.46875 0.890625 -8.875 C 1.253906 -9.28125 1.796875 -9.484375 2.515625 -9.484375 C 3.242188 -9.484375 3.785156 -9.28125 4.140625 -8.875 C 4.503906 -8.46875 4.6875 -7.882812 4.6875 -7.125 L 4.6875 -6.765625 L 3.296875 -6.765625 L 3.296875 -7.21875 C 3.296875 -7.5625 3.226562 -7.800781 3.09375 -7.9375 C 2.96875 -8.082031 2.789062 -8.15625 2.5625 -8.15625 C 2.332031 -8.15625 2.148438 -8.082031 2.015625 -7.9375 C 1.890625 -7.800781 1.828125 -7.5625 1.828125 -7.21875 C 1.828125 -6.90625 1.894531 -6.625 2.03125 -6.375 C 2.175781 -6.125 2.351562 -5.890625 2.5625 -5.671875 C 2.78125 -5.453125 3.015625 -5.234375 3.265625 -5.015625 C 3.515625 -4.796875 3.742188 -4.554688 3.953125 -4.296875 C 4.171875 -4.046875 4.347656 -3.753906 4.484375 -3.421875 C 4.628906 -3.085938 4.703125 -2.695312 4.703125 -2.25 C 4.703125 -1.488281 4.515625 -0.90625 4.140625 -0.5 C 3.773438 -0.09375 3.226562 0.109375 2.5 0.109375 C 1.78125 0.109375 1.234375 -0.09375 0.859375 -0.5 C 0.492188 -0.90625 0.3125 -1.488281 0.3125 -2.25 L 0.3125 -2.890625 L 1.703125 -2.890625 L 1.703125 -2.15625 C 1.703125 -1.820312 1.769531 -1.585938 1.90625 -1.453125 C 2.050781 -1.316406 2.238281 -1.25 2.46875 -1.25 C 2.695312 -1.25 2.878906 -1.316406 3.015625 -1.453125 C 3.160156 -1.585938 3.234375 -1.820312 3.234375 -2.15625 C 3.234375 -2.476562 3.160156 -2.757812 3.015625 -3 C 2.867188 -3.25 2.6875 -3.484375 2.46875 -3.703125 C 2.257812 -3.921875 2.03125 -4.140625 1.78125 -4.359375 C 1.539062 -4.578125 1.3125 -4.816406 1.09375 -5.078125 C 0.882812 -5.335938 0.707031 -5.632812 0.5625 -5.96875 C 0.414062 -6.300781 0.34375 -6.6875 0.34375 -7.125 Z M 0.34375 -7.125 "/></g></g></g><g clip-path="url(#1db27f4631)"><path stroke-linecap="butt" transform="matrix(0.748173, 0, 0, 0.756076, 152.095615, 255.959455)" fill="none" stroke-linejoin="miter" d="M -0.00249209 17.366502 L 128.315237 17.366502 " stroke="#111111" stroke-width="3" stroke-opacity="1" stroke-miterlimit="4"/></g><g fill="#0d6efd" fill-opacity="1"><g transform="translate(190.790924, 272.359465)"><g><path d="M 3.296875 -11.203125 C 4.210938 -11.203125 4.875 -10.988281 5.28125 -10.5625 C 5.695312 -10.132812 5.90625 -9.488281 5.90625 -8.625 L 5.90625 -8.21875 C 5.90625 -7.644531 5.8125 -7.171875 5.625 -6.796875 C 5.445312 -6.421875 5.160156 -6.144531 4.765625 -5.96875 C 5.242188 -5.789062 5.582031 -5.492188 5.78125 -5.078125 C 5.976562 -4.671875 6.078125 -4.164062 6.078125 -3.5625 L 6.078125 -2.65625 C 6.078125 -1.789062 5.851562 -1.128906 5.40625 -0.671875 C 4.957031 -0.222656 4.289062 0 3.40625 0 L 0.640625 0 L 0.640625 -11.203125 Z M 2.40625 -5.046875 L 2.40625 -1.59375 L 3.40625 -1.59375 C 3.707031 -1.59375 3.929688 -1.671875 4.078125 -1.828125 C 4.234375 -1.992188 4.3125 -2.285156 4.3125 -2.703125 L 4.3125 -3.6875 C 4.3125 -4.207031 4.222656 -4.5625 4.046875 -4.75 C 3.878906 -4.945312 3.59375 -5.046875 3.1875 -5.046875 Z M 2.40625 -9.59375 L 2.40625 -6.640625 L 3.09375 -6.640625 C 3.414062 -6.640625 3.671875 -6.722656 3.859375 -6.890625 C 4.046875 -7.066406 4.140625 -7.378906 4.140625 -7.828125 L 4.140625 -8.453125 C 4.140625 -8.859375 4.066406 -9.148438 3.921875 -9.328125 C 3.785156 -9.503906 3.5625 -9.59375 3.25 -9.59375 Z M 2.40625 -9.59375 "/></g></g></g><g fill="#0d6efd" fill-opacity="1"><g transform="translate(197.285366, 272.359465)"><g><path d="M 2.3125 -11.203125 L 2.3125 -2.5625 C 2.3125 -2.15625 2.394531 -1.867188 2.5625 -1.703125 C 2.726562 -1.546875 2.953125 -1.46875 3.234375 -1.46875 C 3.503906 -1.46875 3.722656 -1.546875 3.890625 -1.703125 C 4.054688 -1.867188 4.140625 -2.15625 4.140625 -2.5625 L 4.140625 -11.203125 L 5.8125 -11.203125 L 5.8125 -2.671875 C 5.8125 -1.765625 5.585938 -1.066406 5.140625 -0.578125 C 4.703125 -0.0976562 4.050781 0.140625 3.1875 0.140625 C 2.320312 0.140625 1.664062 -0.0976562 1.21875 -0.578125 C 0.78125 -1.066406 0.5625 -1.765625 0.5625 -2.671875 L 0.5625 -11.203125 Z M 2.3125 -11.203125 "/></g></g></g><g fill="#0d6efd" fill-opacity="1"><g transform="translate(203.65184, 272.359465)"><g><path d="M 0.421875 -8.515625 C 0.421875 -9.421875 0.632812 -10.113281 1.0625 -10.59375 C 1.5 -11.082031 2.148438 -11.328125 3.015625 -11.328125 C 3.867188 -11.328125 4.507812 -11.082031 4.9375 -10.59375 C 5.375 -10.113281 5.59375 -9.421875 5.59375 -8.515625 L 5.59375 -8.078125 L 3.9375 -8.078125 L 3.9375 -8.625 C 3.9375 -9.03125 3.859375 -9.316406 3.703125 -9.484375 C 3.546875 -9.648438 3.332031 -9.734375 3.0625 -9.734375 C 2.78125 -9.734375 2.5625 -9.648438 2.40625 -9.484375 C 2.25 -9.316406 2.171875 -9.03125 2.171875 -8.625 C 2.171875 -8.238281 2.253906 -7.898438 2.421875 -7.609375 C 2.597656 -7.316406 2.8125 -7.039062 3.0625 -6.78125 C 3.320312 -6.519531 3.597656 -6.253906 3.890625 -5.984375 C 4.191406 -5.722656 4.46875 -5.4375 4.71875 -5.125 C 4.976562 -4.820312 5.191406 -4.472656 5.359375 -4.078125 C 5.523438 -3.679688 5.609375 -3.21875 5.609375 -2.6875 C 5.609375 -1.78125 5.382812 -1.082031 4.9375 -0.59375 C 4.5 -0.113281 3.847656 0.125 2.984375 0.125 C 2.128906 0.125 1.476562 -0.113281 1.03125 -0.59375 C 0.59375 -1.082031 0.375 -1.78125 0.375 -2.6875 L 0.375 -3.453125 L 2.03125 -3.453125 L 2.03125 -2.578125 C 2.03125 -2.171875 2.113281 -1.882812 2.28125 -1.71875 C 2.445312 -1.5625 2.664062 -1.484375 2.9375 -1.484375 C 3.21875 -1.484375 3.441406 -1.5625 3.609375 -1.71875 C 3.773438 -1.882812 3.859375 -2.171875 3.859375 -2.578125 C 3.859375 -2.960938 3.769531 -3.300781 3.59375 -3.59375 C 3.425781 -3.882812 3.210938 -4.160156 2.953125 -4.421875 C 2.703125 -4.679688 2.429688 -4.941406 2.140625 -5.203125 C 1.847656 -5.460938 1.570312 -5.75 1.3125 -6.0625 C 1.050781 -6.375 0.835938 -6.726562 0.671875 -7.125 C 0.503906 -7.519531 0.421875 -7.984375 0.421875 -8.515625 Z M 0.421875 -8.515625 "/></g></g></g><g fill="#0d6efd" fill-opacity="1"><g transform="translate(169.481698, 254.752331)"><g><path d="M 1.890625 -33.15625 L 7.109375 -33.15625 L 7.109375 -4.734375 L 15.671875 -4.734375 L 15.671875 0 L 1.890625 0 Z M 1.890625 -33.15625 "/></g></g></g><g fill="#0d6efd" fill-opacity="1"><g transform="translate(195.147754, 254.752331)"><g><path d="M 1.890625 -33.15625 L 7.109375 -33.15625 L 7.109375 0 L 1.890625 0 Z M 1.890625 -33.15625 "/></g></g></g><g fill="#0d6efd" fill-opacity="1"><g transform="translate(213.664424, 254.752331)"><g><path d="M 9.75 -6.109375 L 13.734375 -33.15625 L 18.515625 -33.15625 L 13.40625 0 L 5.640625 0 L 0.515625 -33.15625 L 5.78125 -33.15625 Z M 9.75 -6.109375 "/></g></g></g><g fill="#0d6efd" fill-opacity="1"><g transform="translate(242.223085, 254.752331)"><g/></g></g></svg>